<?xml version="1.0" encoding="UTF-8" standalone="no"?>
<!DOCTYPE svg PUBLIC "-//W3C//DTD SVG 1.1//EN" "http://www.w3.org/Graphics/SVG/1.1/DTD/svg11.dtd">
<!-- Generated by graphviz version 2.38.0 (20140413.2041)
 -->
<!-- Title: workflow Pages: 1 -->
<svg width="115pt" height="191pt" viewBox="0.00 0.00 118.50 196.00" xmlns="http://www.w3.org/2000/svg" xmlns:xlink="http://www.w3.org/1999/xlink">
<g id="graph0" class="graph" transform="scale(0.972222 0.972222) rotate(0) translate(4 192)">
<title>workflow</title>
<g id="clust1" class="cluster"><title>cluster_inputs</title>
<polygon fill="none" stroke="black" stroke-dasharray="5,2" points="22.5,-125 22.5,-180 102.5,-180 102.5,-125 22.5,-125"/>
<text text-anchor="middle" x="62.5" y="-168" font-family="Times,serif" font-size="10.00">Workflow Inputs</text>
</g>
<g id="clust2" class="cluster"><title>cluster_outputs</title>
<polygon fill="none" stroke="black" stroke-dasharray="5,2" points="10.5,-8 10.5,-63 97.5,-63 97.5,-8 10.5,-8"/>
<text text-anchor="middle" x="54" y="-15" font-family="Times,serif" font-size="10.00">Workflow Outputs</text>
</g>
<!-- links -->
<g id="node1" class="node"><title>links</title>
<polygon fill="#94ddf4" stroke="black" points="35.5,-133.5 35.5,-152.5 71.5,-152.5 71.5,-133.5 35.5,-133.5"/>
<text text-anchor="middle" x="53.5" y="-140.5" font-family="Helvetica,sans-Serif" font-size="10.00">links</text>
</g>
<!-- process -->
<g id="node3" class="node"><title>process</title>
<polygon fill="#f3cea1" stroke="black" points="-7.10543e-15,-80.5 -7.10543e-15,-99.5 107,-99.5 107,-80.5 -7.10543e-15,-80.5"/>
<text text-anchor="middle" x="53.5" y="-87.5" font-family="Helvetica,sans-Serif" font-size="10.00">epos single download</text>
</g>
<!-- links&#45;&gt;process -->
<g id="edge1" class="edge"><title>links-&gt;process</title>
<path fill="none" stroke="black" d="M53.5,-133.116C53.5,-125.877 53.5,-115.471 53.5,-106.815"/>
<polygon fill="black" stroke="black" points="55.9501,-106.782 53.5,-99.7817 51.0501,-106.782 55.9501,-106.782"/>
<text text-anchor="middle" x="70" y="-110.6" font-family="Helvetica,sans-Serif" font-size="8.00">message</text>
</g>
<!-- download -->
<g id="node2" class="node"><title>download</title>
<polygon fill="#94ddf4" stroke="black" points="25,-35.5 25,-54.5 82,-54.5 82,-35.5 25,-35.5"/>
<text text-anchor="middle" x="53.5" y="-42.5" font-family="Helvetica,sans-Serif" font-size="10.00">download</text>
</g>
<!-- process&#45;&gt;download -->
<g id="edge2" class="edge"><title>process-&gt;download</title>
<path fill="none" stroke="black" d="M53.5,-80.2983C53.5,-75.0528 53.5,-68.2092 53.5,-62.0161"/>
<polygon fill="black" stroke="black" points="55.9501,-61.6887 53.5,-54.6888 51.0501,-61.6888 55.9501,-61.6887"/>
</g>
</g>
</svg>