<?xml version="1.0" encoding="UTF-8" standalone="no"?>
<!DOCTYPE svg PUBLIC "-//W3C//DTD SVG 1.1//EN" "http://www.w3.org/Graphics/SVG/1.1/DTD/svg11.dtd">
<!-- Generated by graphviz version 2.38.0 (20140413.2041)
 -->
<!-- Title: workflow Pages: 1 -->
<svg width="150pt" height="191pt" viewBox="0.00 0.00 154.00 196.00" xmlns="http://www.w3.org/2000/svg" xmlns:xlink="http://www.w3.org/1999/xlink">
<g id="graph0" class="graph" transform="scale(0.972222 0.972222) rotate(0) translate(4 192)">
<title>workflow</title>
<g id="clust1" class="cluster"><title>cluster_inputs</title>
<polygon fill="none" stroke="black" stroke-dasharray="5,2" points="8,-125 8,-180 88,-180 88,-125 8,-125"/>
<text text-anchor="middle" x="48" y="-168" font-family="Times,serif" font-size="10.00">Workflow Inputs</text>
</g>
<g id="clust2" class="cluster"><title>cluster_outputs</title>
<polygon fill="none" stroke="black" stroke-dasharray="5,2" points="51,-8 51,-63 138,-63 138,-8 51,-8"/>
<text text-anchor="middle" x="94.5" y="-15" font-family="Times,serif" font-size="10.00">Workflow Outputs</text>
</g>
<!-- message -->
<g id="node1" class="node"><title>message</title>
<polygon fill="#94ddf4" stroke="black" points="24.5,-133.5 24.5,-152.5 79.5,-152.5 79.5,-133.5 24.5,-133.5"/>
<text text-anchor="middle" x="52" y="-140.5" font-family="Helvetica,sans-Serif" font-size="10.00">message</text>
</g>
<!-- step1 -->
<g id="node4" class="node"><title>step1</title>
<polygon fill="lightgoldenrodyellow" stroke="black" points="75,-80.5 75,-99.5 115,-99.5 115,-80.5 75,-80.5"/>
<text text-anchor="middle" x="95" y="-87.5" font-family="Helvetica,sans-Serif" font-size="10.00">step1</text>
</g>
<!-- message&#45;&gt;step1 -->
<g id="edge1" class="edge"><title>message-&gt;step1</title>
<path fill="none" stroke="black" d="M59.49,-133.116C65.9642,-125.438 75.4404,-114.199 82.9755,-105.262"/>
<polygon fill="black" stroke="black" points="84.9567,-106.713 87.5958,-99.7817 81.2105,-103.554 84.9567,-106.713"/>
<text text-anchor="middle" x="85" y="-110.6" font-family="Helvetica,sans-Serif" font-size="8.00">url</text>
</g>
<!-- download -->
<g id="node2" class="node"><title>download</title>
<polygon fill="#94ddf4" stroke="black" points="66.5,-35.5 66.5,-54.5 123.5,-54.5 123.5,-35.5 66.5,-35.5"/>
<text text-anchor="middle" x="95" y="-42.5" font-family="Helvetica,sans-Serif" font-size="10.00">download</text>
</g>
<!-- step0 -->
<g id="node3" class="node"><title>step0</title>
<polygon fill="lightgoldenrodyellow" stroke="black" points="96,-133.5 96,-152.5 136,-152.5 136,-133.5 96,-133.5"/>
<text text-anchor="middle" x="116" y="-140.5" font-family="Helvetica,sans-Serif" font-size="10.00">step0</text>
</g>
<!-- step0&#45;&gt;step1 -->
<g id="edge2" class="edge"><title>step0-&gt;step1</title>
<path fill="none" stroke="black" d="M112.342,-133.116C109.301,-125.73 104.903,-115.05 101.297,-106.293"/>
<polygon fill="black" stroke="black" points="103.547,-105.322 98.616,-99.7817 99.0158,-107.187 103.547,-105.322"/>
<text text-anchor="middle" x="116" y="-110.6" font-family="Helvetica,sans-Serif" font-size="8.00">fileout</text>
</g>
<!-- step1&#45;&gt;download -->
<g id="edge3" class="edge"><title>step1-&gt;download</title>
<path fill="none" stroke="black" d="M95,-80.2983C95,-75.0528 95,-68.2092 95,-62.0161"/>
<polygon fill="black" stroke="black" points="97.4501,-61.6887 95,-54.6888 92.5501,-61.6888 97.4501,-61.6887"/>
</g>
</g>
</svg>